<?xml version="1.0" encoding="utf-8"?>
<!-- Generator: Adobe Illustrator 25.2.1, SVG Export Plug-In . SVG Version: 6.00 Build 0)  -->
<svg version="1.1" id="Capa_1" xmlns="http://www.w3.org/2000/svg" xmlns:xlink="http://www.w3.org/1999/xlink" x="0px" y="0px"
	 viewBox="0 0 792 612" style="enable-background:new 0 0 792 612;" xml:space="preserve">
<style type="text/css">
	.st0{fill:#69675B;}
	.st1{fill:#7E9247;}
	.st2{fill:#124D7F;}
	.st3{fill:#F5F4F5;}
	.st4{fill:#2B79B3;}
	.st5{fill:#E3E3E1;}
</style>
<g>
	<path class="st0" d="M139.28,428.26c-1.7,3.31-4.14,6.08-7.31,8.29c-3.17,2.21-6.99,3.87-11.44,4.97c-4.46,1.1-9.4,1.66-14.82,1.66
		H59.8V346.5h44.8c9.92,0,17.71,2.26,23.37,6.77c5.65,4.51,8.48,10.59,8.48,18.23v0.28c0,2.76-0.34,5.2-1.03,7.32
		c-0.69,2.12-1.6,4.03-2.74,5.73c-1.14,1.7-2.47,3.2-3.98,4.49c-1.51,1.29-3.13,2.4-4.87,3.31c5.59,2.12,9.99,5,13.2,8.63
		c3.21,3.64,4.81,8.68,4.81,15.12v0.28C141.83,421.08,140.98,424.95,139.28,428.26z M115.46,375.09c0-3.22-1.2-5.68-3.59-7.39
		c-2.4-1.7-5.85-2.55-10.36-2.55H80.52v20.44h19.61c4.7,0,8.42-0.8,11.19-2.42c2.76-1.61,4.14-4.21,4.14-7.8V375.09z M120.84,413.76
		c0-3.22-1.24-5.78-3.73-7.66c-2.49-1.89-6.49-2.83-12.02-2.83H80.52v21.27h25.27c4.7,0,8.38-0.85,11.05-2.55
		c2.67-1.7,4-4.35,4-7.94V413.76z"/>
	<path class="st0" d="M160.48,443.18V346.5h21.27v96.67H160.48z"/>
	<path class="st0" d="M276,440.35c-6.86,2.99-14.71,4.49-23.55,4.49c-7.55,0-14.43-1.24-20.65-3.73
		c-6.21-2.49-11.56-5.94-16.02-10.36c-4.47-4.42-7.94-9.67-10.43-15.74c-2.49-6.08-3.73-12.71-3.73-19.89v-0.28
		c0-6.9,1.26-13.37,3.8-19.4c2.53-6.03,6.05-11.32,10.56-15.88c4.51-4.56,9.85-8.15,16.02-10.77c6.17-2.62,12.93-3.94,20.3-3.94
		c4.33,0,8.26,0.3,11.81,0.9c3.54,0.6,6.84,1.45,9.87,2.55c3.04,1.1,5.89,2.49,8.56,4.14c2.67,1.66,5.25,3.55,7.73,5.66l-13.4,16.16
		c-1.84-1.56-3.68-2.95-5.52-4.14c-1.84-1.2-3.75-2.21-5.73-3.04c-1.98-0.83-4.12-1.47-6.42-1.93c-2.3-0.46-4.83-0.69-7.6-0.69
		c-3.87,0-7.48,0.81-10.84,2.42c-3.36,1.61-6.31,3.78-8.84,6.51c-2.53,2.72-4.51,5.91-5.94,9.55c-1.43,3.64-2.14,7.54-2.14,11.7
		v0.28c0,4.43,0.71,8.51,2.14,12.25c1.43,3.74,3.45,6.99,6.08,9.76c2.62,2.77,5.71,4.91,9.25,6.44c3.54,1.52,7.48,2.28,11.81,2.28
		c7.92,0,14.59-1.95,20.03-5.84v-13.91h-21.41v-18.37h41.98v41.98C288.77,433.74,282.86,437.36,276,440.35z"/>
	<path class="st0" d="M314.19,443.18V346.5h72.78v18.92h-51.79v19.61h45.57v18.92h-45.57v20.3h52.48v18.92H314.19z"/>
	<path class="st0" d="M474.52,443.18l-46.82-61.46v61.46h-20.99V346.5h19.61l45.3,59.52V346.5h20.99v96.67H474.52z"/>
	<path class="st0" d="M559.6,366.11v77.06h-21.27v-77.06h-29.42V346.5h80.1v19.61H559.6z"/>
	<path class="st0" d="M606.27,443.18V346.5h21.27v96.67H606.27z"/>
	<path class="st0" d="M714.14,443.18l-29.97-41.16l-11.19,11.6v29.55h-21.27V346.5h21.27v42.26l39.22-42.26h25.69l-39.36,41.02
		l41.16,55.66H714.14z"/>
</g>
<g>
	<path class="st0" d="M282.48,515.65c-1.91,1.09-3.96,2.04-6.17,2.86c-2.21,0.82-4.59,1.46-7.13,1.92
		c-2.54,0.46-5.21,0.69-7.99,0.69c-4.96,0-9.47-0.75-13.53-2.25c-4.06-1.5-7.52-3.57-10.4-6.21c-2.88-2.64-5.1-5.76-6.67-9.36
		c-1.57-3.6-2.36-7.49-2.36-11.69c0-4.03,0.8-7.85,2.41-11.44c1.6-3.6,3.86-6.74,6.76-9.44c2.91-2.7,6.37-4.83,10.4-6.41
		c4.02-1.58,8.43-2.37,13.21-2.37c2.78,0,5.31,0.18,7.58,0.53c2.27,0.36,4.37,0.86,6.31,1.51c1.94,0.65,3.77,1.46,5.49,2.41
		c1.72,0.95,3.4,2.06,5.04,3.31l-7.08,7.6c-1.21-0.93-2.45-1.77-3.72-2.53c-1.27-0.76-2.6-1.4-4-1.92
		c-1.39-0.52-2.92-0.93-4.59-1.23c-1.67-0.3-3.5-0.45-5.49-0.45c-2.91,0-5.62,0.53-8.13,1.6c-2.51,1.06-4.69,2.52-6.54,4.38
		c-1.85,1.86-3.3,4.01-4.36,6.47c-1.06,2.46-1.59,5.08-1.59,7.86c0,2.95,0.51,5.68,1.54,8.19c1.03,2.51,2.5,4.68,4.4,6.51
		c1.91,1.83,4.18,3.26,6.81,4.3c2.63,1.04,5.58,1.56,8.85,1.56c3.03,0,5.86-0.4,8.49-1.19c2.63-0.79,4.92-1.85,6.85-3.16v-10.76
		h-16.25v-8.74h27.06v24.03C286.12,513.42,284.38,514.57,282.48,515.65z"/>
	<path class="st0" d="M342.99,520.15l-15.67-19.94H313.3v19.94h-11.08v-57.2h28.33c3.63,0,6.91,0.42,9.85,1.27
		c2.94,0.85,5.42,2.04,7.45,3.6c2.03,1.55,3.59,3.46,4.68,5.72c1.09,2.26,1.63,4.78,1.63,7.56c0,2.4-0.38,4.54-1.14,6.41
		c-0.76,1.88-1.8,3.54-3.13,4.99c-1.33,1.44-2.92,2.67-4.77,3.68c-1.85,1.01-3.89,1.79-6.13,2.33l17.16,21.65H342.99z
		 M339.35,474.44c-2.31-1.61-5.56-2.42-9.75-2.42h-16.3v19.29h16.39c4.01,0,7.19-0.87,9.56-2.62c2.37-1.75,3.55-4.1,3.55-7.06
		C342.81,478.45,341.66,476.05,339.35,474.44z"/>
	<path class="st0" d="M429.07,502.91c-1.63,3.6-3.94,6.74-6.9,9.44c-2.97,2.7-6.48,4.84-10.53,6.42c-4.06,1.58-8.54,2.37-13.44,2.37
		s-9.38-0.78-13.44-2.33c-4.06-1.55-7.54-3.66-10.44-6.33c-2.91-2.67-5.18-5.8-6.81-9.4c-1.63-3.6-2.45-7.41-2.45-11.44
		c0-4.03,0.82-7.85,2.45-11.44c1.63-3.6,3.93-6.74,6.9-9.44c2.96-2.7,6.48-4.83,10.53-6.41c4.05-1.58,8.53-2.37,13.44-2.37
		c4.9,0,9.38,0.78,13.44,2.33c4.05,1.55,7.54,3.66,10.44,6.33c2.9,2.67,5.18,5.8,6.81,9.4c1.63,3.6,2.45,7.41,2.45,11.44
		C431.52,495.5,430.7,499.31,429.07,502.91z M418.22,483.74c-1.06-2.48-2.54-4.64-4.45-6.5c-1.91-1.85-4.19-3.32-6.86-4.41
		c-2.66-1.09-5.57-1.63-8.72-1.63c-3.15,0-6.04,0.53-8.67,1.59c-2.63,1.06-4.89,2.51-6.76,4.33c-1.88,1.83-3.35,3.98-4.4,6.46
		c-1.06,2.48-1.59,5.11-1.59,7.89s0.53,5.41,1.59,7.89c1.06,2.48,2.54,4.65,4.45,6.5c1.91,1.85,4.19,3.32,6.85,4.41
		c2.66,1.09,5.57,1.63,8.72,1.63c3.15,0,6.04-0.53,8.67-1.59c2.63-1.06,4.89-2.51,6.76-4.33c1.88-1.82,3.34-3.98,4.4-6.46
		c1.06-2.48,1.59-5.11,1.59-7.89C419.81,488.85,419.27,486.22,418.22,483.74z"/>
	<path class="st0" d="M498.43,495.39c0,4.25-0.65,7.98-1.95,11.2c-1.3,3.21-3.13,5.9-5.49,8.05c-2.36,2.15-5.22,3.76-8.58,4.82
		c-3.36,1.06-7.13,1.59-11.3,1.59c-4.12,0-7.84-0.53-11.17-1.59c-3.33-1.06-6.17-2.66-8.53-4.78c-2.36-2.12-4.18-4.75-5.45-7.89
		c-1.27-3.13-1.91-6.77-1.91-10.91v-32.93h11.08v32.52c0,5.34,1.43,9.4,4.29,12.18c2.86,2.78,6.82,4.17,11.87,4.17
		c4.99,0,8.92-1.33,11.78-4c2.86-2.67,4.29-6.65,4.29-11.93v-32.93h11.08V495.39z"/>
	<path class="st0" d="M560.99,490.65c-1.33,2.45-3.16,4.49-5.46,6.13c-2.31,1.63-5,2.87-8.1,3.72c-3.1,0.85-6.4,1.27-9.92,1.27
		h-12.65v18.39h-11.08v-57.2h25.06c3.69,0,7.04,0.45,10.03,1.35c3,0.9,5.54,2.19,7.63,3.88c2.09,1.69,3.69,3.71,4.81,6.05
		c1.12,2.34,1.68,4.98,1.68,7.93C562.99,485.37,562.32,488.2,560.99,490.65z M547.91,474.6c-2.49-1.72-5.83-2.58-10.02-2.58h-13.03
		v20.67h13.03c4.25,0,7.61-0.94,10.07-2.83c2.46-1.89,3.69-4.39,3.69-7.51C551.64,478.91,550.4,476.33,547.91,474.6z"/>
</g>
<path class="st1" d="M394.61,107.3c56.83,0,103.25,41.88,105.19,94.04h16.47c-1.92-61.22-55.74-110.47-121.66-110.47
	c-67.13,0-121.75,51.08-121.75,113.86s54.62,113.86,121.75,113.86c7.14,0,14.14-0.59,20.95-1.71c0,0,8.21-1.46,12.04-2.56
	c0.66-0.17,10.56-3.24,14.23-4.69c25.56-9.65,42.03-23.18,49.02-40.43c10.24-25.28-4.2-48.16-4.82-49.12l-2.5-3.87h-93.03v16.91
	h83.31c2.61,5.84,6.3,17.53,1.36,29.73c-6.73,16.6-27.98,29.59-61.44,37.65c-6.2,1.06-12.58,1.65-19.11,1.65
	c-8.42,0-16.59-0.94-24.44-2.68V148.01c13.85-0.96,42.76-0.9,63.18,13.22c12.92,8.94,20.54,22.41,22.76,40.11h19.76
	c-2.45-22.94-12.49-40.67-29.98-52.77c-34.67-23.98-85.27-16.23-87.4-15.89l-7.99,1.28v159.19c-36.07-15.47-61.17-49.28-61.17-88.43
	C289.33,151.01,336.56,107.3,394.61,107.3z"/>
</svg>
